<svg xmlns="http://www.w3.org/2000/svg" xmlns:xlink="http://www.w3.org/1999/xlink" width="500" zoomAndPan="magnify" viewBox="0 0 375 374.999991" height="500" preserveAspectRatio="xMidYMid meet" version="1.0"><defs><clipPath id="cc7f362f5b"><path d="M 56.503906 81.035156 L 258 81.035156 L 258 257 L 56.503906 257 Z M 56.503906 81.035156 " clip-rule="nonzero"/></clipPath><clipPath id="e16677f877"><path d="M 138 117 L 318.253906 117 L 318.253906 294 L 138 294 Z M 138 117 " clip-rule="nonzero"/></clipPath></defs><rect x="-37.5" width="450" fill="#ffffff" y="-37.499999" height="449.999989" fill-opacity="1"/><rect x="-37.5" width="450" fill="#000c44" y="-37.499999" height="449.999989" fill-opacity="1"/><g clip-path="url(#cc7f362f5b)"><path fill="#5271ff" d="M 63.84375 81.035156 L 249.6875 81.035156 C 253.929688 81.035156 257.019531 84.125 257.019531 88.371094 L 257.019531 203.898438 C 257.019531 207.777344 253.929688 211.234375 249.6875 211.234375 L 168.160156 211.234375 L 168.160156 196.5625 L 242.351562 196.5625 L 242.351562 95.703125 L 71.179688 95.703125 L 71.179688 196.5625 L 76.574219 196.5625 C 80.453125 196.5625 83.910156 199.65625 83.910156 203.898438 L 83.910156 230.566406 L 114.039062 198.867188 C 115.191406 197.347656 117.496094 196.5625 119.851562 196.5625 L 138.402344 196.5625 L 138.402344 211.234375 L 122.945312 211.234375 L 81.972656 254.144531 C 78.882812 257.234375 74.269531 257.234375 71.546875 254.511719 C 70.027344 252.992188 69.242188 251.054688 69.242188 249.113281 L 69.242188 211.234375 L 63.84375 211.234375 C 59.96875 211.234375 56.507812 207.777344 56.507812 203.898438 L 56.507812 88.371094 C 56.507812 84.125 59.96875 81.035156 63.84375 81.035156 Z M 63.84375 81.035156 " fill-opacity="1" fill-rule="nonzero"/></g><g clip-path="url(#e16677f877)"><path fill="#5271ff" d="M 303.808594 132.433594 L 257.074219 132.433594 L 257.074219 117.761719 L 311.144531 117.761719 C 315.386719 117.761719 318.480469 121.222656 318.480469 125.097656 L 318.480469 240.625 C 318.480469 244.503906 315.386719 247.960938 311.144531 247.960938 L 306.113281 247.960938 L 306.113281 285.84375 C 306.113281 287.78125 305.328125 289.71875 303.808594 291.238281 C 300.71875 293.964844 296.105469 293.964844 293.382812 290.871094 L 252.410156 247.960938 L 146.15625 247.960938 C 141.910156 247.960938 138.453125 244.503906 138.453125 240.625 L 138.453125 125.097656 C 138.453125 121.222656 141.910156 117.761719 146.15625 117.761719 L 227.679688 117.761719 L 227.679688 132.433594 L 153.492188 132.433594 L 153.492188 233.292969 L 255.5 233.292969 C 257.808594 233.292969 259.746094 234.078125 261.316406 236.015625 L 291.445312 267.296875 L 291.445312 240.628906 C 291.445312 236.382812 294.535156 233.292969 298.777344 233.292969 L 303.808594 233.292969 Z M 303.808594 132.433594 " fill-opacity="1" fill-rule="nonzero"/></g><path fill="#5271ff" d="M 168.160156 155.222656 L 182.832031 155.222656 L 182.832031 169.894531 L 168.160156 169.894531 Z M 168.160156 155.222656 " fill-opacity="1" fill-rule="nonzero"/><path fill="#5271ff" d="M 190.585938 155.222656 L 205.253906 155.222656 L 205.253906 169.894531 L 190.585938 169.894531 Z M 190.585938 155.222656 " fill-opacity="1" fill-rule="nonzero"/><path fill="#5271ff" d="M 213.011719 155.222656 L 227.679688 155.222656 L 227.679688 169.894531 L 213.011719 169.894531 Z M 213.011719 155.222656 " fill-opacity="1" fill-rule="nonzero"/></svg>